<?xml version="1.0" encoding="UTF-8" standalone="no" ?>
<!DOCTYPE svg PUBLIC "-//W3C//DTD SVG 1.1//EN" "http://www.w3.org/Graphics/SVG/1.1/DTD/svg11.dtd">
<svg xmlns="http://www.w3.org/2000/svg" xmlns:xlink="http://www.w3.org/1999/xlink" version="1.1" width="1280" height="1024" viewBox="0 0 1280 1024" xml:space="preserve">
<desc>Created with Fabric.js 5.3.0</desc>
<defs>
</defs>
<g transform="matrix(1 0 0 1 640 512)" id="background-logo"  >
<rect style="stroke: none; stroke-width: 0; stroke-dasharray: none; stroke-linecap: butt; stroke-dashoffset: 0; stroke-linejoin: miter; stroke-miterlimit: 4; fill: rgb(36,34,35); fill-rule: nonzero; opacity: 1;"  paint-order="stroke"  x="-640" y="-512" rx="0" ry="0" width="1280" height="1024" />
</g>
<g transform="matrix(1.9211538461538462 0 0 1.9211538461538462 640 404.64251821068467)" id="logo-logo"  >
<g style=""  paint-order="stroke"   >
		<g transform="matrix(1.0479628529701372 0 0 1.0479628529701372 0 0)"  >
<g style=""  paint-order="stroke"   >
		<g transform="matrix(1 0 0 1 -0.11969994903330416 -23.74590430970119)"  >
<linearGradient id="SVGID_115154" gradientUnits="userSpaceOnUse" gradientTransform="matrix(1 0 0 1 21.248407995947126 21.559966852873295)"  x1="0" y1="0" x2="0" y2="109">
<stop offset="0%" style="stop-color:rgb(66,230,149);stop-opacity: 1"/>
<stop offset="100%" style="stop-color:rgb(59,178,184);stop-opacity: 1"/>
</linearGradient>
<path style="stroke: none; stroke-width: 1; stroke-dasharray: none; stroke-linecap: butt; stroke-dashoffset: 0; stroke-linejoin: miter; stroke-miterlimit: 4; fill: url(#SVGID_115154); fill-rule: nonzero; opacity: 1;"  paint-order="stroke"  transform=" translate(-75.93921132918841, -76.25076959585797)" d="M 76 21.56 C 53.874515931131924 21.535726278244127 33.9141503695673 34.84511595434376 25.43026938217561 55.27943507407653 C 16.946388394783916 75.71375419380931 21.610611003009268 99.24673263603974 37.24711111846662 114.90040628265078 C 52.88361123392397 130.5540799292618 76.41145560676489 135.2441317486919 96.85507512508362 126.78268651247366 C 117.29869464340234 118.3212412762554 130.6299866847345 98.37549738412955 130.63 76.24999999999996 C 130.6406121676492 61.752454291830816 124.89029140802434 47.844766384012615 114.64460373209505 37.58782589350241 C 104.39891605616577 27.33088540299221 90.49754862279737 21.5653017150791 76 21.560000000000002 Z" stroke-linecap="round" />
</g>
		<g transform="matrix(1 0 0 1 -0.11976661770458463 -23.74584269060658)"  >
<linearGradient id="SVGID_115155" gradientUnits="userSpaceOnUse" gradientTransform="matrix(1 0 0 1 17.18828932103429 17.49996914348594)"  x1="0" y1="0" x2="0" y2="118">
<stop offset="0%" style="stop-color:rgb(66,230,149);stop-opacity: 1"/>
<stop offset="100%" style="stop-color:rgb(59,178,184);stop-opacity: 1"/>
</linearGradient>
<path style="stroke: none; stroke-width: 1; stroke-dasharray: none; stroke-linecap: butt; stroke-dashoffset: 0; stroke-linejoin: miter; stroke-miterlimit: 4; fill: url(#SVGID_115155); fill-rule: nonzero; opacity: 1;"  paint-order="stroke"  transform=" translate(-75.93914466051714, -76.25083121495257)" d="M 76 17.5 C 52.2323980978201 17.475726691784953 30.791608702444293 31.77430463798178 21.679317079530563 53.725742649031844 C 12.567025456616832 75.67718066008192 17.578605233572745 100.95643795375119 34.376257988495965 117.77126329625825 C 51.173910743419185 134.58608863876532 76.4480340177247 139.6234960965291 98.40877149159046 130.53363916817509 C 120.36950896545622 121.44378223982108 134.689987605116 100.01761429706067 134.69 76.24999999999999 C 134.6734933466684 43.83352976955647 108.41643644141813 17.54962973235331 75.99999999999999 17.5 Z M 76 134.06 C 52.606733761763486 134.08832081941128 31.501356135109603 120.01781796060675 22.53044425057 98.41299332994485 C 13.559532366030396 76.80816869928296 18.49090586035871 51.926497314049925 35.02386439403389 35.3763616805995 C 51.55682292770908 18.826226047149078 76.43336005438147 13.86901755359338 98.04748862274938 22.817489690885324 C 119.6616171911173 31.765961828177268 133.7540287377536 52.85671696552407 133.75 76.25000000000003 C 133.72799401659228 108.1450445575251 107.89500450952448 134.00487353421062 76 134.06 Z" stroke-linecap="round" />
</g>
		<g transform="matrix(1 0 0 1 0 0)"  >
<linearGradient id="SVGID_115156" gradientUnits="userSpaceOnUse" gradientTransform="matrix(1 0 0 1 0.11776400404376375 -0.0066521888816595265)"  x1="0" y1="0" x2="0" y2="200">
<stop offset="0%" style="stop-color:rgb(66,230,149);stop-opacity: 1"/>
<stop offset="100%" style="stop-color:rgb(59,178,184);stop-opacity: 1"/>
</linearGradient>
<path style="stroke: none; stroke-width: 1; stroke-dasharray: none; stroke-linecap: butt; stroke-dashoffset: 0; stroke-linejoin: miter; stroke-miterlimit: 4; fill: url(#SVGID_115156); fill-rule: nonzero; opacity: 1;"  paint-order="stroke"  transform=" translate(-76.05891127822173, -99.99667390555916)" d="M 146.48 86.41 C 146.91 83.41 152.01999999999998 78.71 152 75.69 C 151.98000000000002 72.67 146.79 68.03 146.32 65.06 C 145.85 62.09 149.32 56.06 148.43 53.18 C 147.54000000000002 50.3 141.20000000000002 47.4 139.87 44.7 C 138.54 42.00000000000001 140.12 35.21 138.4 32.7 C 136.68 30.190000000000005 129.78 29.310000000000002 127.72 27.120000000000005 C 125.66 24.930000000000007 125.16 17.980000000000004 122.78999999999999 16.120000000000005 C 120.41999999999999 14.260000000000005 113.55999999999999 15.420000000000005 110.94 13.930000000000005 C 108.32000000000001 12.440000000000005 105.78999999999999 5.930000000000005 102.94 4.8700000000000045 C 100.09 3.810000000000004 94 7 91 6.31 C 88 5.619999999999999 83.75 0.21 80.75 0 C 77.75 -0.21 72.75 4.62 69.75 4.87 C 66.75 5.12 61 1.19 58.06 1.88 C 55.120000000000005 2.57 51.76 8.67 49 9.79 C 46.24 10.909999999999998 39.56 8.85 37 10.37 C 34.44 11.889999999999999 33 18.72 30.64 20.619999999999997 C 28.28 22.519999999999996 21.34 22.49 19.310000000000002 24.72 C 17.280000000000005 26.95 17.930000000000003 33.879999999999995 16.250000000000004 36.379999999999995 C 14.570000000000004 38.879999999999995 7.9200000000000035 40.919999999999995 6.630000000000004 43.63999999999999 C 5.340000000000005 46.35999999999999 8.010000000000005 52.809999999999995 7.140000000000004 55.63999999999999 C 6.270000000000003 58.46999999999999 0.5100000000000042 62.43999999999999 0.14000000000000412 65.41999999999999 C -0.22999999999999599 68.39999999999998 4.140000000000004 73.76999999999998 4.140000000000004 76.78999999999999 C 4.140000000000004 79.81 -0.27 85.29 0.2 88.26 C 0.67 91.23 6.5 95.06 7.41 97.93 C 8.32 100.80000000000001 5.76 107.28 7.08 110 C 8.4 112.72 15.08 114.63 16.810000000000002 117.11 C 18.540000000000006 119.59 17.980000000000004 126.53 20.050000000000004 128.72 C 22.120000000000005 130.91 29.050000000000004 130.79 31.440000000000005 132.65 C 33.540000000000006 134.3 34.99 139.83 37.11000000000001 142.09 L 17.59 188.76 L 44 177.39 L 53.43 200 L 75.55 149.85 L 75.7 149.94 L 99.7 200 L 109.56 174.43 L 134.47 184.08 L 112.47 137.77 C 115.4 136.66 121.47 137.45000000000002 123.68 135.68 C 126.02000000000001 133.78 126.41000000000001 126.83000000000001 128.44 124.61000000000001 C 130.46999999999997 122.39000000000001 137.35999999999999 121.36000000000001 139.03 118.86000000000001 C 140.70000000000002 116.36000000000001 139.03 109.60000000000001 140.32 106.86000000000001 C 141.60999999999999 104.12000000000002 147.89 101.13000000000001 148.75 98.24000000000001 C 149.61 95.35000000000001 146.06 89.4 146.48 86.41 Z M 76 140.9 C 49.845164409121566 140.92831925080077 26.249953479250642 125.19482009489988 16.221302431830416 101.03902607079617 C 6.192651384410183 76.88323204669246 11.706539217578836 49.06464086243102 30.190791163398245 30.560353338472737 C 48.67504310921766 12.056065814514454 76.48764455689638 6.512044239302639 100.65428883953098 16.51452047683759 C 124.82093312216558 26.51699671437254 140.57998466861454 50.095149077740615 140.57999999999998 76.24999999999999 C 140.55799635212566 111.91877037182837 111.66872560353261 140.83935497846414 75.99999999999999 140.9 Z" stroke-linecap="round" />
</g>
</g>
</g>
</g>
</g>
<g transform="matrix(1.9211538461538462 0 0 1.9211538461538462 639.9702221153847 697.9600858772508)" id="text-logo"  >
<g style=""  paint-order="stroke"   >
		<g transform="matrix(1 0 0 1 0 0)" id="text-logo-path-0"  >
<linearGradient id="SVGID_115157" gradientUnits="userSpaceOnUse" gradientTransform="matrix(1 0 0 1 2.4799999999999898 -43.71)"  x1="-12.400000000000063" y1="-10.796680000000038" x2="-12.400000000000063" y2="59.20331999999996">
<stop offset="0%" style="stop-color:rgb(66,230,149);stop-opacity: 1"/>
<stop offset="100%" style="stop-color:rgb(59,178,184);stop-opacity: 1"/>
</linearGradient>
<path style="stroke: none; stroke-width: 0.6600396058812504; stroke-dasharray: none; stroke-linecap: butt; stroke-dashoffset: 0; stroke-linejoin: miter; stroke-miterlimit: 4; fill: url(#SVGID_115157); fill-rule: nonzero; opacity: 1;"  paint-order="stroke"  transform=" translate(-178.77499999999998, 21.67)" d="M 16.99 -43.71 C 11.35 -43.71 2.79 -40.92 2.79 -33.17 C 2.79 -20.96 25.67 -18.35 25.67 -8.93 C 25.67 -5.52 23.13 -0.87 16.37 -0.87 C 10.97 -0.87 6.82 -2.98 3.47 -7.94 L 2.48 -6.94 C 5.08 -3.22 8.74 0.37 16.86 0.37 C 22.63 0.37 31.87 -3.35 31.87 -11.04 C 31.87 -23.25 8.99 -25.98 8.99 -34.91 C 8.99 -39.43 12.83 -42.22 17.24 -42.22 C 24.06 -42.22 29.2 -37.7 26.97 -35.9 C 26.29 -35.4 25.85 -34.6 25.85 -33.73 C 25.85 -32.18 27.03 -31 28.58 -31 C 30.07 -31 31.43 -32.3 31.25 -34.29 C 30.63 -38.63 25.85 -43.71 16.99 -43.71 Z M 62.87 -1.24 L 62.87 0 L 75.27 0 L 75.27 -1.24 C 73.41 -1.24 72.17 -1.74 72.17 -3.72 L 72.17 -39.68 C 72.17 -41.66 73.41 -42.16 75.27 -42.16 L 75.27 -43.4 L 62.87 -43.4 L 62.87 -42.16 C 64.73 -42.16 65.97 -41.66 65.97 -39.68 L 65.97 -23.56 C 65.97 -22.82 65.47 -22.32 64.73 -22.32 L 46.75 -22.32 C 46 -22.32 45.51 -22.82 45.51 -23.56 L 45.51 -39.68 C 45.51 -41.66 46.75 -42.16 48.61 -42.16 L 48.61 -43.4 L 36.21 -43.4 L 36.21 -42.16 C 38.07 -42.16 39.31 -41.66 39.31 -39.68 L 39.31 -3.72 C 39.31 -1.74 38.07 -1.24 36.21 -1.24 L 36.21 0 L 48.61 0 L 48.61 -1.24 C 46.75 -1.24 45.51 -1.74 45.51 -3.72 L 45.51 -19.84 C 45.51 -20.58 46 -21.08 46.75 -21.08 L 64.73 -21.08 C 65.47 -21.08 65.97 -20.58 65.97 -19.84 L 65.97 -3.72 C 65.97 -1.74 64.73 -1.24 62.87 -1.24 Z M 99.82 0.37 C 108.31 0.37 115.26 -4.53 115.26 -13.76 L 115.26 -39.68 C 115.26 -41.66 116.5 -42.16 118.36 -42.16 L 118.36 -43.4 L 114.64 -43.4 L 110.92 -43.4 L 110.92 -42.16 C 112.78 -42.16 114.02 -41.66 114.02 -39.68 L 114.02 -13.95 C 114.02 -5.39 108 -0.99 100.75 -0.99 C 93.31 -0.99 88.91 -6.01 88.91 -14.57 L 88.91 -39.68 C 88.91 -41.66 90.15 -42.16 92.01 -42.16 L 92.01 -43.4 L 79.61 -43.4 L 79.61 -42.16 C 81.47 -42.16 82.71 -41.66 82.71 -39.68 L 82.71 -14.38 C 82.71 -5.15 91.2 0.37 99.82 0.37 Z M 123.32 -1.24 L 123.32 0 L 151.53 0 L 151.59 -0.31 L 152.95 -5.77 L 151.78 -6.08 C 151.09 -3.35 150.1 -1.24 148.12 -1.24 L 133.86 -1.24 C 133.11 -1.24 132.62 -1.74 132.62 -2.48 L 132.62 -39.68 C 132.62 -41.66 133.86 -42.16 135.72 -42.16 L 135.72 -43.4 L 123.32 -43.4 L 123.32 -42.16 C 125.18 -42.16 126.42 -41.66 126.42 -39.68 L 126.42 -3.72 C 126.42 -1.74 125.18 -1.24 123.32 -1.24 Z M 156.8 -1.24 L 156.8 0 L 185.32 0 L 185.38 -0.31 L 186.74 -5.77 L 185.57 -6.08 C 184.88 -3.35 183.89 -1.24 181.91 -1.24 L 167.34 -1.24 C 166.59 -1.24 166.1 -1.74 166.1 -2.48 L 166.1 -19.84 C 166.1 -20.58 166.59 -21.08 167.34 -21.08 L 175.71 -21.08 C 177.69 -21.08 178.19 -19.84 178.19 -17.98 L 179.43 -17.98 L 179.43 -21.7 L 179.43 -25.42 L 178.19 -25.42 C 178.19 -23.56 177.69 -22.32 175.71 -22.32 L 167.34 -22.32 C 166.59 -22.32 166.1 -22.82 166.1 -23.56 L 166.1 -42.16 L 181.29 -42.16 C 183.27 -42.16 184.26 -40.05 184.95 -37.32 L 186.12 -37.63 L 184.76 -43.09 L 184.7 -43.4 L 156.8 -43.4 L 156.8 -42.16 C 158.66 -42.16 159.9 -41.66 159.9 -39.68 L 159.9 -3.72 C 159.9 -1.74 158.66 -1.24 156.8 -1.24 Z M 226.61 -20.4 L 220.84 -20.4 C 220.1 -20.4 219.6 -20.89 219.6 -21.64 L 219.6 -40.92 C 219.6 -41.66 220.1 -42.16 220.84 -42.16 L 226.61 -42.16 C 235.17 -42.16 237.09 -36.7 237.09 -31.37 C 237.09 -25.85 235.17 -20.4 226.61 -20.4 Z M 210.3 -1.24 L 210.3 0 L 222.7 0 L 222.7 -1.24 C 220.84 -1.24 219.6 -1.74 219.6 -3.72 L 219.6 -17.92 C 219.6 -18.66 220.1 -19.16 220.84 -19.16 L 231.2 -19.16 C 238.58 -19.16 243.54 -24.55 243.54 -31.43 C 243.54 -38.01 238.58 -43.4 231.2 -43.4 L 210.3 -43.4 L 210.3 -42.16 C 212.16 -42.16 213.4 -41.66 213.4 -39.68 L 213.4 -3.72 C 213.4 -1.74 212.16 -1.24 210.3 -1.24 Z M 248.5 -1.24 L 248.5 0 L 276.71 0 L 276.77 -0.31 L 278.13 -5.77 L 276.95 -6.08 C 276.27 -3.35 275.28 -1.24 273.3 -1.24 L 259.04 -1.24 C 258.29 -1.24 257.8 -1.74 257.8 -2.48 L 257.8 -39.68 C 257.8 -41.66 259.04 -42.16 260.9 -42.16 L 260.9 -43.4 L 248.5 -43.4 L 248.5 -42.16 C 250.36 -42.16 251.6 -41.66 251.6 -39.68 L 251.6 -3.72 C 251.6 -1.74 250.36 -1.24 248.5 -1.24 Z M 302.19 0.37 C 310.68 0.37 317.63 -4.53 317.63 -13.76 L 317.63 -39.68 C 317.63 -41.66 318.87 -42.16 320.73 -42.16 L 320.73 -43.4 L 317.01 -43.4 L 313.29 -43.4 L 313.29 -42.16 C 315.15 -42.16 316.39 -41.66 316.39 -39.68 L 316.39 -13.95 C 316.39 -5.39 310.37 -0.99 303.12 -0.99 C 295.68 -0.99 291.28 -6.01 291.28 -14.57 L 291.28 -39.68 C 291.28 -41.66 292.52 -42.16 294.38 -42.16 L 294.38 -43.4 L 281.98 -43.4 L 281.98 -42.16 C 283.84 -42.16 285.08 -41.66 285.08 -39.68 L 285.08 -14.38 C 285.08 -5.15 293.57 0.37 302.19 0.37 Z M 340.19 -43.71 C 334.55 -43.71 326 -40.92 326 -33.17 C 326 -20.96 348.87 -18.35 348.87 -8.93 C 348.87 -5.52 346.33 -0.87 339.57 -0.87 C 334.18 -0.87 330.03 -2.98 326.68 -7.94 L 325.69 -6.94 C 328.29 -3.22 331.95 0.37 340.07 0.37 C 345.84 0.37 355.07 -3.35 355.07 -11.04 C 355.07 -23.25 332.2 -25.98 332.2 -34.91 C 332.2 -39.43 336.04 -42.22 340.44 -42.22 C 347.26 -42.22 352.41 -37.7 350.18 -35.9 C 349.49 -35.4 349.06 -34.6 349.06 -33.73 C 349.06 -32.18 350.24 -31 351.79 -31 C 353.28 -31 354.64 -32.3 354.45 -34.29 C 353.83 -38.63 349.06 -43.71 340.19 -43.71 Z" stroke-linecap="round" />
</g>
</g>
</g>
<g transform="matrix(1.9211538461538462 0 0 1.9211538461538462 639.9289173076924 354.718418418218)" id="tagline-5c1db6ff-515a-40af-bb9d-9bce8b71dea7-logo"  >
<g style=""  paint-order="stroke"   >
		<g transform="matrix(1 0 0 1 0 0)" id="tagline-5c1db6ff-515a-40af-bb9d-9bce8b71dea7-logo-path-0"  >
<path style="stroke: rgb(135,19,17); stroke-width: 0; stroke-dasharray: none; stroke-linecap: butt; stroke-dashoffset: 0; stroke-linejoin: miter; stroke-miterlimit: 4; fill: rgb(36,34,35); fill-rule: nonzero; opacity: 1;"  paint-order="stroke"  transform=" translate(-20.5, 25.865000000000002)" d="M 20.28 -52.17 C 13.54 -52.17 3.33 -48.84 3.33 -39.59 C 3.33 -25.01 30.64 -21.9 30.64 -10.66 C 30.64 -6.59 27.6 -1.04 19.54 -1.04 C 13.1 -1.04 8.14 -3.55 4.14 -9.47 L 2.96 -8.29 C 6.07 -3.85 10.43 0.44 20.13 0.44 C 27.01 0.44 38.04 -4 38.04 -13.17 C 38.04 -27.75 10.73 -31.01 10.73 -41.66 C 10.73 -47.06 15.32 -50.39 20.57 -50.39 C 28.71 -50.39 34.85 -44.99 32.19 -42.85 C 31.38 -42.25 30.86 -41.29 30.86 -40.26 C 30.86 -38.41 32.26 -37 34.11 -37 C 35.89 -37 37.52 -38.55 37.3 -40.92 C 36.56 -46.1 30.86 -52.17 20.28 -52.17 Z" stroke-linecap="round" />
</g>
</g>
</g>
</svg>